<?xml version="1.0" encoding="UTF-8" standalone="no"?>
<svg width="27px" height="26px" viewBox="0 0 27 26" version="1.1" xmlns="http://www.w3.org/2000/svg" xmlns:xlink="http://www.w3.org/1999/xlink" xmlns:sketch="http://www.bohemiancoding.com/sketch/ns">
    <!-- Generator: Sketch 3.3.3 (12081) - http://www.bohemiancoding.com/sketch -->
    <title>Github</title>
    <desc>Created with Sketch.</desc>
    <defs></defs>
    <g id="Main-Page" stroke="none" stroke-width="1" fill="none" fill-rule="evenodd" sketch:type="MSPage">
        <g id="Desktop" sketch:type="MSArtboardGroup" transform="translate(-549.000000, -263.000000)">
            <g id="Header" sketch:type="MSLayerGroup" transform="translate(0.000000, 1.000000)">
                <g id="Personal-section" transform="translate(320.000000, 85.000000)" sketch:type="MSShapeGroup">
                    <g id="Social-buttons" transform="translate(82.000000, 177.500000)">
                        <g id="Github" transform="translate(148.000000, 0.000000)">
                            <circle id="Oval-2" stroke="#3B7BDA" cx="12.5" cy="12.5" r="12.5"></circle>
                            <g id="github5" transform="translate(5.000000, 6.000000)" fill="#3B7BDA">
                                <path d="M0,7.15053711 C0,7.83019531 0.0635742188,8.44513672 0.190751953,8.99527344 C0.317871094,9.54538086 0.493916016,10.0233594 0.718857422,10.4292383 C0.943798828,10.8351172 1.22985352,11.1920996 1.57705078,11.5001562 C1.92421875,11.8082422 2.30077148,12.0600781 2.70662109,12.2556641 C3.1124707,12.4512207 3.57580078,12.610127 4.09658203,12.7324121 C4.61736328,12.854668 5.14916016,12.9402441 5.69194336,12.9891699 C6.23472656,13.0380664 6.83129883,13.0625 7.48166016,13.0625 C8.13691406,13.0625 8.73594727,13.0380664 9.27873047,12.9891699 C9.82151367,12.9402441 10.354541,12.8546387 10.8777539,12.7324121 C11.4009668,12.6101562 11.8666992,12.45125 12.2750391,12.2556641 C12.6833789,12.0600488 13.062334,11.8082422 13.4119922,11.5001562 C13.7616797,11.1920996 14.050166,10.8350586 14.2775098,10.4292383 C14.5048535,10.0233887 14.6821582,9.54541016 14.8092773,8.99527344 C14.9364258,8.44516602 15,7.83019531 15,7.15053711 C15,5.93782227 14.5941211,4.88890625 13.7824512,4.00381836 C13.8264551,3.88645508 13.8667969,3.75321289 13.9034766,3.6040625 C13.9401562,3.45491211 13.974375,3.2422168 14.0061621,2.96591797 C14.0379492,2.68961914 14.0257324,2.37057617 13.9694824,2.00870117 C13.9132617,1.64682617 13.8093457,1.27765625 13.6576758,0.901103516 L13.547666,0.879101562 C13.4694141,0.864453125 13.3410352,0.868115234 13.1625586,0.890117187 C12.984082,0.912119141 12.7762207,0.956123047 12.5390918,1.0221582 C12.3019336,1.08816406 11.9963086,1.2153125 11.6222168,1.40357422 C11.248125,1.59183594 10.8532617,1.82776367 10.4375977,2.11138672 C9.72369141,1.91580078 8.74324219,1.81797852 7.49630859,1.81797852 C6.25423828,1.81797852 5.27625,1.91580078 4.56231445,2.11138672 C4.14665039,1.82776367 3.74932617,1.59183594 3.37037109,1.40357422 C2.99141602,1.2153125 2.68945312,1.08816406 2.46451172,1.0221582 C2.23959961,0.956123047 2.02930664,0.913349609 1.8337207,0.893779297 C1.63810547,0.874208984 1.51461914,0.868115234 1.46329102,0.875439453 C1.41196289,0.882763672 1.3715918,0.891347656 1.34226562,0.901103516 C1.19068359,1.27765625 1.08676758,1.64679687 1.03054687,2.00870117 C0.974326172,2.37057617 0.962080078,2.68964844 0.993867187,2.96591797 C1.0256543,3.2421875 1.05990234,3.45491211 1.09655273,3.6040625 C1.13323242,3.75321289 1.17357422,3.88645508 1.21757812,4.00381836 C0.405878906,4.88890625 0,5.93779297 0,7.15053711 L0,7.15053711 Z M1.84107422,8.99161133 C1.84107422,8.28746094 2.16137695,7.64196289 2.80195313,7.05517578 C2.99264648,6.87907227 3.21515625,6.74585937 3.46942383,6.65539062 C3.72369141,6.56489258 4.01097656,6.51356445 4.3312793,6.50131836 C4.65158203,6.48910156 4.9584082,6.4915332 5.25181641,6.50867187 C5.54519531,6.52578125 5.90707031,6.54901367 6.33738281,6.57833984 C6.76769531,6.60769531 7.13935547,6.62234375 7.45230469,6.62234375 C7.7652832,6.62234375 8.13691406,6.60769531 8.56722656,6.57833984 C8.99756836,6.54901367 9.35938477,6.52578125 9.65285156,6.50867187 C9.94625977,6.4915332 10.2530273,6.48910156 10.5733887,6.50131836 C10.8936914,6.51356445 11.180918,6.56489258 11.4352734,6.65539062 C11.6895117,6.74585937 11.9119629,6.87907227 12.1027148,7.05517578 C12.7432617,7.63220703 13.063623,8.27767578 13.063623,8.99161133 C13.063623,9.41216797 13.0110352,9.785 12.9058594,10.1102246 C12.8007129,10.4354492 12.6662402,10.7080273 12.5024121,10.9280469 C12.338584,11.1480957 12.1112402,11.3351562 11.8202637,11.4891699 C11.5293164,11.6432129 11.2457227,11.7617773 10.9694238,11.8449805 C10.693125,11.9280957 10.3385742,11.9929004 9.90583008,12.0393652 C9.47302734,12.0858301 9.08674805,12.1139551 8.746875,12.1237109 C8.40700195,12.1334961 7.97548828,12.1383887 7.45227539,12.1383887 C6.9290625,12.1383887 6.49751953,12.1334961 6.15767578,12.1237109 C5.81783203,12.1139551 5.43149414,12.0858301 4.99875,12.0393652 C4.56600586,11.9929004 4.21148437,11.9280957 3.93518555,11.8449805 C3.65891602,11.7617773 3.37529297,11.6431836 3.0843457,11.4891699 C2.79339844,11.3351562 2.56599609,11.148125 2.40219727,10.9280469 C2.23839844,10.707998 2.10389648,10.4354492 1.9987793,10.1102246 C1.89363281,9.785 1.84107422,9.41210937 1.84107422,8.99161133 L1.84107422,8.99161133 Z M9.375,8.84375 C9.375,9.62041016 9.79473633,10.25 10.3125,10.25 C10.8302637,10.25 11.25,9.62041016 11.25,8.84375 C11.25,8.06708984 10.8302637,7.4375 10.3125,7.4375 C9.79473633,7.4375 9.375,8.06708984 9.375,8.84375 L9.375,8.84375 Z M3.75,8.84375 C3.75,9.62041016 4.16973633,10.25 4.6875,10.25 C5.20526367,10.25 5.625,9.62041016 5.625,8.84375 C5.625,8.06708984 5.20526367,7.4375 4.6875,7.4375 C4.16973633,7.4375 3.75,8.06708984 3.75,8.84375 L3.75,8.84375 Z" id="Shape"></path>
                            </g>
                        </g>
                    </g>
                </g>
            </g>
        </g>
    </g>
</svg>
