<?xml version="1.0" encoding="UTF-8" standalone="no"?>
<svg width="27px" height="26px" viewBox="0 0 27 26" version="1.1" xmlns="http://www.w3.org/2000/svg" xmlns:xlink="http://www.w3.org/1999/xlink" xmlns:sketch="http://www.bohemiancoding.com/sketch/ns">
    <!-- Generator: Sketch 3.3.3 (12081) - http://www.bohemiancoding.com/sketch -->
    <title>Instagram</title>
    <desc>Created with Sketch.</desc>
    <defs></defs>
    <g id="Main-Page" stroke="none" stroke-width="1" fill="none" fill-rule="evenodd" sketch:type="MSPage">
        <g id="Desktop" sketch:type="MSArtboardGroup" transform="translate(-475.000000, -263.000000)">
            <g id="Header" sketch:type="MSLayerGroup" transform="translate(0.000000, 1.000000)">
                <g id="Personal-section" transform="translate(320.000000, 85.000000)" sketch:type="MSShapeGroup">
                    <g id="Social-buttons" transform="translate(82.000000, 177.500000)">
                        <g id="Instagram" transform="translate(74.000000, 0.000000)">
                            <circle id="Oval-2" stroke="#3B7BDA" cx="12.5" cy="12.5" r="12.5"></circle>
                            <g id="instagram12" transform="translate(6.000000, 6.000000)" fill="#3B7BDA">
                                <path d="M1.6984898,0.0401938776 L11.3016429,0.0401938776 C12.2136327,0.0401938776 12.9598061,0.715397959 12.9598061,1.69835714 L12.9598061,11.3016429 C12.9598061,12.2847347 12.2136327,12.9598061 11.3016429,12.9598061 L1.6984898,12.9598061 C0.786234694,12.9598061 0.0401938776,12.284602 0.0401938776,11.3016429 L0.0401938776,1.69835714 C0.0401938776,0.715397959 0.786234694,0.0401938776 1.6984898,0.0401938776 L1.6984898,0.0401938776 L1.6984898,0.0401938776 Z M9.45166327,1.47563265 C9.13170408,1.47563265 8.87011224,1.73722449 8.87011224,2.05731633 L8.87011224,3.4495102 C8.87011224,3.76946939 9.13170408,4.03119388 9.45166327,4.03119388 L10.9119082,4.03119388 C11.2317347,4.03119388 11.4934592,3.76946939 11.4934592,3.4495102 L11.4934592,2.05731633 C11.4934592,1.73722449 11.2317347,1.47563265 10.9119082,1.47563265 L9.45166327,1.47563265 L9.45166327,1.47563265 Z M11.4996939,5.50377551 L10.3624592,5.50377551 C10.4700408,5.85504082 10.5282755,6.22713265 10.5282755,6.61222449 C10.5282755,8.76120408 8.73016327,10.5032041 6.51233673,10.5032041 C4.29464286,10.5032041 2.49666327,8.76120408 2.49666327,6.61222449 C2.49666327,6.227 2.55476531,5.85504082 2.66247959,5.50377551 L1.47589796,5.50377551 L1.47589796,10.9612551 C1.47589796,11.2436735 1.70697959,11.4748878 1.98953061,11.4748878 L10.9863265,11.4748878 C11.2687449,11.4748878 11.4999592,11.2438061 11.4999592,10.9612551 L11.4999592,5.50377551 L11.4996939,5.50377551 L11.4996939,5.50377551 Z M6.51220408,3.95783673 C5.07928571,3.95783673 3.9175102,5.08339796 3.9175102,6.4720102 C3.9175102,7.86062245 5.07928571,8.98618367 6.51220408,8.98618367 C7.9452551,8.98618367 9.10716327,7.86062245 9.10716327,6.4720102 C9.10716327,5.08339796 7.94538776,3.95783673 6.51220408,3.95783673 L6.51220408,3.95783673 Z" id="Shape"></path>
                            </g>
                        </g>
                    </g>
                </g>
            </g>
        </g>
    </g>
</svg>
