<?xml version="1.0" encoding="UTF-8" standalone="no"?>
<svg width="27px" height="26px" viewBox="0 0 27 26" version="1.1" xmlns="http://www.w3.org/2000/svg" xmlns:xlink="http://www.w3.org/1999/xlink" xmlns:sketch="http://www.bohemiancoding.com/sketch/ns">
    <!-- Generator: Sketch 3.3.3 (12081) - http://www.bohemiancoding.com/sketch -->
    <title>LinkedIn</title>
    <desc>Created with Sketch.</desc>
    <defs></defs>
    <g id="Main-Page" stroke="none" stroke-width="1" fill="none" fill-rule="evenodd" sketch:type="MSPage">
        <g id="Desktop" sketch:type="MSArtboardGroup" transform="translate(-586.000000, -263.000000)">
            <g id="Header" sketch:type="MSLayerGroup" transform="translate(0.000000, 1.000000)">
                <g id="Personal-section" transform="translate(320.000000, 85.000000)" sketch:type="MSShapeGroup">
                    <g id="Social-buttons" transform="translate(82.000000, 177.500000)">
                        <g id="LinkedIn" transform="translate(185.000000, 0.000000)">
                            <circle id="Oval-2" stroke="#3B7BDA" cx="12.5" cy="12.5" r="12.5"></circle>
                            <g id="linkedin11" transform="translate(7.000000, 6.500000)" fill="#3B7BDA">
                                <path d="M11.9754153,6.96848339 L11.9754153,11.35628 L9.40869606,11.35628 L9.40869606,7.26235156 C9.40869606,6.23392335 9.0374478,5.53206132 8.10838051,5.53206132 C7.39915545,5.53206132 6.97709513,6.0050649 6.79141531,6.46261625 C6.72370302,6.62618906 6.70627378,6.85386101 6.70627378,7.08282984 L6.70627378,11.35628 L4.13869142,11.35628 C4.13869142,11.35628 4.17327146,4.42250894 4.13869142,3.70411855 L6.7060232,3.70411855 L6.7060232,4.78878181 C6.70081671,4.79689423 6.69405104,4.80564129 6.68915081,4.81350537 L6.7060232,4.81350537 L6.7060232,4.78878181 C7.04711833,4.26812468 7.65627842,3.52434849 9.01976798,3.52434849 C10.7090394,3.5243209 11.9754153,4.61803475 11.9754153,6.96848339 L11.9754153,6.96848339 Z M1.45289095,0.0153970363 C0.574524362,0.0153970363 0,0.586384262 0,1.33725192 C0,2.07175677 0.557902552,2.66007256 1.41881206,2.66007256 L1.43596288,2.66007256 C2.33134107,2.66007256 2.88818561,2.07186714 2.88818561,1.33725192 C2.87131323,0.586384262 2.33134107,0.0153970363 1.45289095,0.0153970363 L1.45289095,0.0153970363 Z M0.152491879,11.35628 L2.71909977,11.35628 L2.71909977,3.70411855 L0.152491879,3.70411855 L0.152491879,11.35628 L0.152491879,11.35628 Z" id="LinkedIn"></path>
                            </g>
                        </g>
                    </g>
                </g>
            </g>
        </g>
    </g>
</svg>
