<?xml version="1.0" encoding="UTF-8" standalone="no"?>
<svg width="27px" height="26px" viewBox="0 0 27 26" version="1.1" xmlns="http://www.w3.org/2000/svg" xmlns:xlink="http://www.w3.org/1999/xlink" xmlns:sketch="http://www.bohemiancoding.com/sketch/ns">
    <!-- Generator: Sketch 3.3.3 (12081) - http://www.bohemiancoding.com/sketch -->
    <title>Twitter</title>
    <desc>Created with Sketch.</desc>
    <defs></defs>
    <g id="Main-Page" stroke="none" stroke-width="1" fill="none" fill-rule="evenodd" sketch:type="MSPage">
        <g id="Desktop" sketch:type="MSArtboardGroup" transform="translate(-438.000000, -263.000000)">
            <g id="Header" sketch:type="MSLayerGroup" transform="translate(0.000000, 1.000000)">
                <g id="Personal-section" transform="translate(320.000000, 85.000000)" sketch:type="MSShapeGroup">
                    <g id="Social-buttons" transform="translate(82.000000, 177.500000)">
                        <g id="Twitter" transform="translate(37.000000, 0.000000)">
                            <circle id="Oval-2" stroke="#3B7BDA" cx="12.5" cy="12.5" r="12.5"></circle>
                            <path d="M17.8596591,10.0149515 C17.8596591,9.8888151 17.8573864,9.7638151 17.8517045,9.63995146 C18.3914773,9.23767874 18.8596591,8.73426964 19.2301136,8.15813328 C18.7346591,8.38086055 18.2028409,8.52972419 17.64375,8.59222419 C18.2142045,8.24108783 18.6517045,7.67972419 18.8585227,7.00586055 C18.3244318,7.32972419 17.7335227,7.56154237 17.1051136,7.68199692 C16.6017045,7.10926964 15.8835227,6.74449692 15.0892045,6.73086055 C13.5642045,6.70586055 12.3278409,7.99449692 12.3278409,9.60926964 C12.3278409,9.8388151 12.3517045,10.0615424 12.3994318,10.2763151 C10.1028409,10.1285878 8.06761364,8.93313328 6.70625,7.13086055 C6.46875,7.56267874 6.33238636,8.06722419 6.33238636,8.60813328 C6.33238636,9.63086055 6.81988636,10.5399515 7.56079545,11.0763151 C7.10738636,11.0558606 6.68238636,10.9183606 6.30965909,10.6933606 L6.30965909,10.7308606 C6.30965909,12.160406 7.26193182,13.3581333 8.52556818,13.6376787 C8.29375,13.7035878 8.04943182,13.7376787 7.79829545,13.7365424 C7.61988636,13.735406 7.44715909,13.7160878 7.27897727,13.6797242 C7.63011364,14.8513151 8.65056818,15.7069969 9.85852273,15.735406 C8.91306818,16.5194969 7.72215909,16.9876787 6.42897727,16.9842696 C6.20625,16.9842696 5.98579545,16.9694969 5.76988636,16.9422242 C6.99261364,17.7808606 8.44375,18.2694969 10.0039773,18.2694969 C15.0823864,18.2706333 17.8596591,13.8501787 17.8596591,10.0149515 L17.8596591,10.0149515 Z" id="Shape" fill="#3B7BDA"></path>
                        </g>
                    </g>
                </g>
            </g>
        </g>
    </g>
</svg>
